<svg id="Camada_1" data-name="Camada 1" xmlns="http://www.w3.org/2000/svg" viewBox="0 0 1071.23 686.28"><defs><style>.cls-1{fill:#ff6a9c;}</style></defs><title>Sem título-1</title><path class="cls-1" d="M687.84,727.23c-83.85,0-172.46-12.42-263.59-37-99.81-26.88-200.42-67.78-299-121.54l4.26-7.82c98,53.43,198,94.06,297.09,120.76,94.7,25.51,186.62,37.81,273.17,36.58C870.31,715.8,1009.32,660.3,1091.18,562c45.66-54.85,78.9-129.05,91.21-203.59,13.17-79.76.95-151-34.41-200.68-31.31-44-84.87-76.29-154.88-93.47C928.58,48.4,852.53,45.58,773.18,56.08c-83.26,11-164.49,36.39-228.73,71.44-69.34,37.84-116,84.87-135,136-15.75,42.39-15.7,97.32.12,146.92,7.94,24.89,19.74,47.88,34.13,66.49C459.18,497,477.45,512,498,521.59c46.26,21.52,108.17,16.65,165.59-13.06,56.38-29.17,95.35-75.68,104.25-124.43,7.54-41.31-5.12-94.17-30.78-128.55-15-20-32.54-31.68-50.82-33.66-20.8-2.26-55.93,9.16-86.45,48.75-18.61,24.14-26.91,49.49-21.14,64.58,6.23,16.3,32.52,30.33,57.07,24,19.81-5.11,35.31-23.31,39.48-46.36l8.76,1.59c-4.79,26.46-22.85,47.42-46,53.4-26.85,6.93-59.08-7.1-67.62-29.44-7-18.2,1.63-46.25,22.4-73.2C613.18,238.63,650.22,209,687.16,213c20.81,2.25,40.52,15.11,57,37.19,27.46,36.78,40.48,91.23,32.4,135.48C767.18,437.14,726.46,486,667.65,516.44c-59.86,31-124.69,35.91-173.44,13.22-21.81-10.15-41.19-26.05-57.59-47.27-15.23-19.7-27.2-43-35.57-69.23-16.41-51.43-16.4-108.53,0-152.72,19.76-53.19,67.87-101.85,139.12-140.74C605.36,84.14,687.69,58.41,772,47.25c80.44-10.65,157.63-7.77,223.21,8.33,72.11,17.69,127.44,51.22,160,97,36.74,51.58,49.5,125.2,35.94,207.3-12.56,76-46.51,151.8-93.15,207.83-83.55,100.37-225,157-398.16,159.48Q693.87,727.23,687.84,727.23Z" transform="translate(-125.22 -40.95)"/></svg>